<svg id="Layer" enable-background="new 0 0 64 64" height="512" viewBox="0 0 64 64" width="512" xmlns="http://www.w3.org/2000/svg"><path d="m50 14h-2.263c-.892-3.445-4.017-6-7.737-6-4.411 0-8 3.589-8 8v2.516l-23.621 18.7c-.239.19-.379.478-.379.784v17.014c0 .388.225.741.576.906.136.063.28.094.424.094.229 0 .457-.079.64-.232l9.338-7.782h7.022v7.014c0 .552.448 1 1 1h4 2 4c.552 0 1-.448 1-1s-.448-1-1-1h-4-1v-6.014c9.122 0 16-6.449 16-15v-2c0-.552-.448-1-1-1s-1 .448-1 1v2c0 7.411-6.019 13-14 13h-10.622l12.262-10.218c.424-.354.482-.984.128-1.408-.354-.425-.984-.482-1.408-.128l-22.36 18.632v-5.41l23.64-19.7c.424-.354.482-.984.128-1.408-.354-.425-.984-.482-1.408-.128l-22.36 18.633v-6.381l23.621-18.7c.295-.239.379-.439.379-.784v-3c0-3.309 2.691-6 6-6s6 2.691 6 6v7 2c0 .552.448 1 1 1s1-.448 1-1v-1h7c.552 0 1-.448 1-1v-3c0-3.309-2.691-6-6-6zm-20 40.014h-2v-6.014h2zm24-32.014h-6v-6h2c2.206 0 4 1.794 4 4z"/><path d="m46.29 27.29c-.18.19-.29.45-.29.71s.11.52.29.71c.19.18.45.29.71.29s.52-.11.71-.29c.18-.19.29-.45.29-.71s-.11-.52-.29-.71c-.38-.37-1.05-.37-1.42 0z"/></svg>